<?xml version="1.0" encoding="utf-8"?>
<!-- Generator: Adobe Illustrator 16.0.0, SVG Export Plug-In . SVG Version: 6.00 Build 0)  -->
<!DOCTYPE svg PUBLIC "-//W3C//DTD SVG 1.1//EN" "http://www.w3.org/Graphics/SVG/1.1/DTD/svg11.dtd">
<svg version="1.1" id="Layer_1" xmlns="http://www.w3.org/2000/svg" xmlns:xlink="http://www.w3.org/1999/xlink" x="0px" y="0px"
	 width="25px" height="44px" viewBox="-0.5 0 25 44" enable-background="new -0.5 0 25 44" xml:space="preserve">
<path fill="#3E3B30" d="M15.5,28h-9v-6.5c0-2.49,2.01-4.5,4.5-4.5s4.5,2.01,4.5,4.5V28z M17.5,27v-5.5c0-3.07-2.13-5.64-5-6.32V14.5
	c0-0.83-0.67-1.5-1.5-1.5s-1.5,0.67-1.5,1.5v0.68c-2.87,0.681-5,3.25-5,6.32V27l-2,2v1h17v-1L17.5,27z M11,33c1.1,0,2-0.9,2-2H9
	C9,32.1,9.9,33,11,33z"/>
</svg>
