<?xml version="1.0" encoding="utf-8"?>
<!-- Generator: Adobe Illustrator 16.0.0, SVG Export Plug-In . SVG Version: 6.00 Build 0)  -->
<!DOCTYPE svg PUBLIC "-//W3C//DTD SVG 1.1//EN" "http://www.w3.org/Graphics/SVG/1.1/DTD/svg11.dtd">
<svg version="1.1" id="Layer_1" xmlns="http://www.w3.org/2000/svg" xmlns:xlink="http://www.w3.org/1999/xlink" x="0px" y="0px"
	 width="44px" height="44px" viewBox="1.5 1.5 44 44" enable-background="new 1.5 1.5 44 44" xml:space="preserve">
<path fill-rule="evenodd" clip-rule="evenodd" fill="#FFFFFF" d="M28.5,28.5h-9V22c0-2.49,2.01-4.5,4.5-4.5s4.5,2.01,4.5,4.5V28.5z
	 M30.5,27.5V22c0-3.07-2.13-5.64-5-6.32V15c0-0.83-0.67-1.5-1.5-1.5s-1.5,0.67-1.5,1.5v0.68c-2.87,0.681-5,3.25-5,6.32v5.5l-2,2v1
	h17v-1L30.5,27.5z M24,33.5c1.1,0,2-0.9,2-2h-4C22,32.6,22.9,33.5,24,33.5z"/>
</svg>
