<?xml version="1.0" encoding="utf-8"?>
<!-- Generator: Adobe Illustrator 16.0.0, SVG Export Plug-In . SVG Version: 6.00 Build 0)  -->
<!DOCTYPE svg PUBLIC "-//W3C//DTD SVG 1.1//EN" "http://www.w3.org/Graphics/SVG/1.1/DTD/svg11.dtd">
<svg version="1.1" id="Layer_1" xmlns="http://www.w3.org/2000/svg" xmlns:xlink="http://www.w3.org/1999/xlink" x="0px" y="0px"
	 width="22px" height="22px" viewBox="0 0 22 22" enable-background="new 0 0 22 22" xml:space="preserve">
<path fill="#C0BCBB" d="M19.354,17.977l-3.623-3.623c1.058-1.156,1.709-2.689,1.709-4.377c0-3.584-2.916-6.5-6.5-6.5
	c-3.584,0-6.5,2.916-6.5,6.5c0,3.584,2.916,6.5,6.5,6.5c1.172,0,2.271-0.316,3.223-0.862l3.777,3.776L19.354,17.977z M6.438,9.976
	c0-2.481,2.019-4.5,4.5-4.5s4.5,2.019,4.5,4.5s-2.019,4.5-4.5,4.5S6.438,12.457,6.438,9.976z"/>
</svg>
