<?xml version="1.0" encoding="utf-8"?>
<!-- Generator: Adobe Illustrator 16.0.0, SVG Export Plug-In . SVG Version: 6.00 Build 0)  -->
<!DOCTYPE svg PUBLIC "-//W3C//DTD SVG 1.1//EN" "http://www.w3.org/Graphics/SVG/1.1/DTD/svg11.dtd">
<svg version="1.1" id="Layer_1" xmlns="http://www.w3.org/2000/svg" xmlns:xlink="http://www.w3.org/1999/xlink" x="0px" y="0px"
	 width="22px" height="22px" viewBox="0 0 22 22" enable-background="new 0 0 22 22" xml:space="preserve">
<path fill="#C0BCBB" d="M11,19.068c-3.87,0-7-3.129-7-7c0-3.87,3.13-7,7-7s7,3.13,7,7C18,15.939,14.87,19.068,11,19.068z M11,3.07
	c-4.97,0-9,4.03-9,9c0,4.97,4.02,9,9,9c4.971,0,9-4.03,9-9C20,7.1,15.971,3.07,11,3.07z M11.5,7.07H10v6l4.75,2.85l0.75-1.229
	l-4-2.371V7.07z M6.88,2.459L5.6,0.93L1,4.78l1.29,1.53L6.88,2.459z M21,4.79l-4.6-3.86l-1.291,1.529l4.601,3.86L21,4.79z"/>
</svg>
