<?xml version="1.0" encoding="utf-8"?>
<!-- Generator: Adobe Illustrator 16.0.0, SVG Export Plug-In . SVG Version: 6.00 Build 0)  -->
<!DOCTYPE svg PUBLIC "-//W3C//DTD SVG 1.1//EN" "http://www.w3.org/Graphics/SVG/1.1/DTD/svg11.dtd">
<svg version="1.1" id="Layer_1" xmlns="http://www.w3.org/2000/svg" xmlns:xlink="http://www.w3.org/1999/xlink" x="0px" y="0px"
	 width="207px" height="34px" viewBox="0.5 -0.5 207 34" enable-background="new 0.5 -0.5 207 34" xml:space="preserve">
<g id="LOGO">
	<g>
		<path fill="#FFFFFF" d="M57.971,8.915h4.344l3.035,8.159l1.086,3.173h0.111l1.085-3.173l2.952-8.159h4.344v18.158h-3.843v-6.656
			c0-1.782,0.333-4.429,0.529-6.181h-0.111l-1.476,4.206l-2.814,7.045h-1.643l-2.784-7.045l-1.448-4.206h-0.112
			c0.195,1.753,0.529,4.399,0.529,6.181v6.656h-3.786V8.915L57.971,8.915z"/>
		<path fill="#FFFFFF" d="M78.518,9.081c0-1.253,1.002-2.118,2.368-2.118c1.393,0,2.367,0.863,2.367,2.118s-0.974,2.144-2.367,2.144
			C79.522,11.225,78.518,10.334,78.518,9.081z M78.853,13.259h4.093v13.813h-4.093V13.259z"/>
		<path fill="#FFFFFF" d="M86.537,13.259h3.34l0.279,1.754h0.111c1.169-1.114,2.562-2.088,4.429-2.088
			c3.008,0,4.289,2.118,4.289,5.57v8.577h-4.094v-8.048c0-2.003-0.528-2.619-1.699-2.619c-1.03,0-1.671,0.475-2.562,1.338v9.329
			h-4.093L86.537,13.259L86.537,13.259L86.537,13.259z"/>
		<path fill="#FFFFFF" d="M102.324,13.259h4.094v8.05c0,1.975,0.529,2.615,1.727,2.615c1.03,0,1.643-0.443,2.451-1.531v-9.135h4.093
			v13.811h-3.341l-0.307-1.92h-0.085c-1.169,1.393-2.449,2.256-4.342,2.256c-3.009,0-4.29-2.119-4.29-5.57V13.259z"/>
		<path fill="#FFFFFF" d="M118.834,16.461h-1.894v-3.035l2.118-0.167l0.475-3.676h3.395v3.676h3.316v3.202h-3.316v5.543
			c0,1.559,0.696,2.199,1.783,2.199c0.444,0,0.947-0.141,1.309-0.279l0.642,2.98c-0.726,0.223-1.729,0.502-3.065,0.502
			c-3.426,0-4.763-2.145-4.763-5.348L118.834,16.461L118.834,16.461z"/>
		<path fill="#FFFFFF" d="M134.373,12.925c3.927,0,5.875,2.87,5.875,6.63c0,0.722-0.083,1.39-0.165,1.722h-8.271
			c0.362,2.092,1.756,3.012,3.591,3.012c1.03,0,1.979-0.309,2.983-0.92l1.361,2.475c-1.42,0.977-3.259,1.562-4.9,1.562
			c-3.956,0-6.99-2.676-6.99-7.24C127.856,15.682,131.059,12.925,134.373,12.925z M136.769,18.744c0-1.587-0.67-2.7-2.311-2.7
			c-1.282,0-2.396,0.863-2.677,2.7H136.769z"/>
		<path fill="#FFFFFF" d="M157.732,22.756h-5.568l-1.115,4.316h-4.177l5.709-18.157h4.901l5.712,18.157h-4.345L157.732,22.756z
			 M156.898,19.555l-0.446-1.674c-0.498-1.808-0.972-3.953-1.478-5.847h-0.111c-0.416,1.922-0.919,4.04-1.419,5.847l-0.445,1.674
			H156.898z"/>
		<path fill="#FFFFFF" d="M168.87,28.158v4.037h-4.096V13.259h3.343l0.279,1.363h0.111c1.082-0.973,2.475-1.698,3.924-1.698
			c3.339,0,5.403,2.757,5.403,7.019c0,4.732-2.842,7.462-5.821,7.462c-1.197,0-2.312-0.527-3.286-1.447L168.87,28.158z
			 M171.069,24.064c1.419,0,2.562-1.227,2.562-4.066c0-2.479-0.751-3.732-2.396-3.732c-0.838,0-1.56,0.39-2.366,1.253v5.653
			C169.594,23.842,170.374,24.064,171.069,24.064z"/>
		<path fill="#FFFFFF" d="M184.823,28.158v4.037h-4.094V13.259h3.343l0.277,1.363h0.111c1.086-0.973,2.477-1.698,3.924-1.698
			c3.342,0,5.402,2.757,5.402,7.019c0,4.732-2.839,7.462-5.819,7.462c-1.198,0-2.312-0.527-3.287-1.447L184.823,28.158z
			 M187.022,24.064c1.421,0,2.563-1.227,2.563-4.066c0-2.479-0.752-3.732-2.396-3.732c-0.837,0-1.561,0.39-2.367,1.253v5.653
			C185.548,23.842,186.327,24.064,187.022,24.064z"/>
		<path fill="#FFFFFF" d="M195.349,12.786c0-3.287,2.477-5.625,5.54-5.625c3.036,0,5.515,2.339,5.515,5.625
			c0,3.285-2.479,5.625-5.515,5.625C197.825,18.41,195.349,16.073,195.349,12.786z M204.873,12.786c0-2.591-1.645-4.263-3.984-4.263
			c-2.335,0-4.01,1.671-4.01,4.263c0,2.589,1.672,4.261,4.01,4.261C203.229,17.047,204.873,15.377,204.873,12.786z M198.632,10h2.48
			c1.28,0,2.254,0.584,2.254,1.837c0,0.641-0.333,1.198-0.974,1.504l1.14,2.144h-1.669l-0.838-1.67h-0.808v1.67h-1.591V10H198.632
			L198.632,10z M200.806,12.702c0.557,0,0.838-0.362,0.838-0.781c0-0.388-0.277-0.724-0.838-0.724h-0.585v1.503L200.806,12.702
			L200.806,12.702z"/>
	</g>
	<g>
		<g>
			<g>
				<path id="SVGID_1_" fill="#FFFFFF" d="M24.052,0.99L2,23l23.377,9.736V1.272L24.052,0.99z M24.006,30.684l-19.593-8.16
					l10.562-10.542l9.028,3.753v14.949H24.006z"/>
			</g>
		</g>
		<polygon fill="#FFFFFF" points="39.365,0.988 27.32,13.008 27.32,14.943 30.292,11.979 39.32,15.733 39.32,30.68 27.32,25.648 
			27.32,27.129 40.69,32.736 40.69,1.272 		"/>
	</g>
</g>
</svg>
