<?xml version="1.0" encoding="utf-8"?>
<!-- Generator: Adobe Illustrator 16.0.0, SVG Export Plug-In . SVG Version: 6.00 Build 0)  -->
<!DOCTYPE svg PUBLIC "-//W3C//DTD SVG 1.1//EN" "http://www.w3.org/Graphics/SVG/1.1/DTD/svg11.dtd">
<svg version="1.1" id="Layer_1" xmlns="http://www.w3.org/2000/svg" xmlns:xlink="http://www.w3.org/1999/xlink" x="0px" y="0px"
	 width="170px" height="40px" viewBox="0 0 170 40" enable-background="new 0 0 170 40" xml:space="preserve">
<g id="LOGO">
	<g>
		<path fill="#3E3B30" d="M51.95,11.388h3.121l2.18,5.861l0.78,2.28h0.08l0.78-2.28l2.12-5.861h3.121v13.043h-2.761V19.65
			c0-1.28,0.24-3.181,0.38-4.44h-0.08l-1.06,3.021l-2.021,5.062h-1.18l-2-5.062l-1.04-3.021h-0.08c0.14,1.26,0.38,3.16,0.38,4.44
			v4.781h-2.72V11.388L51.95,11.388z"/>
		<path fill="#3E3B30" d="M66.709,11.508c0-0.9,0.72-1.521,1.701-1.521c1,0,1.7,0.62,1.7,1.521s-0.7,1.54-1.7,1.54
			C67.43,13.048,66.709,12.408,66.709,11.508z M66.95,14.509h2.94v9.922h-2.94V14.509z"/>
		<path fill="#3E3B30" d="M72.469,14.509h2.4l0.2,1.26h0.08c0.84-0.8,1.84-1.5,3.181-1.5c2.16,0,3.081,1.521,3.081,4.001v6.162
			h-2.94V18.65c0-1.439-0.38-1.881-1.221-1.881c-0.74,0-1.2,0.341-1.84,0.961v6.702h-2.94v-9.922H72.469z"/>
		<path fill="#3E3B30" d="M83.809,14.509h2.941v5.782c0,1.42,0.38,1.879,1.24,1.879c0.74,0,1.18-0.318,1.76-1.1v-6.562h2.941v9.921
			h-2.4l-0.221-1.379H90.01c-0.84,1-1.76,1.619-3.119,1.619c-2.161,0-3.082-1.52-3.082-4V14.509z"/>
		<path fill="#3E3B30" d="M95.669,16.809h-1.36v-2.18l1.521-0.12l0.341-2.641h2.438v2.641h2.382v2.3h-2.382v3.982
			c0,1.119,0.5,1.58,1.281,1.58c0.319,0,0.68-0.102,0.939-0.201l0.461,2.141c-0.521,0.16-1.241,0.361-2.201,0.361
			c-2.461,0-3.421-1.541-3.421-3.842V16.809z"/>
		<path fill="#3E3B30" d="M106.83,14.269c2.82,0,4.221,2.061,4.221,4.762c0,0.52-0.061,1-0.119,1.238h-5.941
			c0.261,1.502,1.261,2.162,2.58,2.162c0.74,0,1.421-0.221,2.142-0.66l0.979,1.779c-1.021,0.701-2.342,1.121-3.521,1.121
			c-2.841,0-5.021-1.922-5.021-5.201C102.148,16.249,104.449,14.269,106.83,14.269z M108.551,18.449c0-1.14-0.48-1.939-1.66-1.939
			c-0.92,0-1.721,0.62-1.922,1.939H108.551z"/>
		<path fill="#3E3B30" d="M123.609,21.33h-4l-0.801,3.102h-3l4.101-13.043h3.521l4.103,13.043h-3.121L123.609,21.33z M123.01,19.031
			l-0.32-1.202c-0.358-1.299-0.698-2.84-1.061-4.2h-0.08c-0.299,1.381-0.66,2.901-1.02,4.2l-0.32,1.202H123.01z"/>
		<path fill="#3E3B30" d="M131.609,25.211v2.9h-2.941V14.509h2.4l0.201,0.979h0.08c0.778-0.699,1.778-1.22,2.819-1.22
			c2.399,0,3.881,1.98,3.881,5.041c0,3.4-2.041,5.361-4.182,5.361c-0.859,0-1.66-0.379-2.359-1.039L131.609,25.211z M133.189,22.271
			c1.02,0,1.84-0.881,1.84-2.922c0-1.78-0.539-2.68-1.721-2.68c-0.601,0-1.119,0.28-1.699,0.9v4.061
			C132.129,22.111,132.689,22.271,133.189,22.271z"/>
		<path fill="#3E3B30" d="M143.068,25.211v2.9h-2.939V14.509h2.4l0.199,0.979h0.08c0.78-0.699,1.78-1.22,2.819-1.22
			c2.401,0,3.881,1.98,3.881,5.041c0,3.4-2.04,5.361-4.18,5.361c-0.861,0-1.661-0.379-2.361-1.039L143.068,25.211z M144.648,22.271
			c1.021,0,1.842-0.881,1.842-2.922c0-1.78-0.541-2.68-1.721-2.68c-0.601,0-1.121,0.28-1.701,0.9v4.061
			C143.59,22.111,144.148,22.271,144.648,22.271z"/>
		<path fill="#3E3B30" d="M150.629,14.169c0-2.361,1.779-4.041,3.98-4.041c2.18,0,3.961,1.68,3.961,4.041
			c0,2.36-1.781,4.04-3.961,4.04C152.408,18.209,150.629,16.53,150.629,14.169z M157.471,14.169c0-1.861-1.182-3.062-2.861-3.062
			s-2.881,1.2-2.881,3.062c0,1.86,1.201,3.061,2.881,3.061S157.471,16.03,157.471,14.169z M152.988,12.168h1.781
			c0.92,0,1.619,0.42,1.619,1.32c0,0.46-0.24,0.86-0.699,1.08l0.819,1.54h-1.2l-0.601-1.2h-0.58v1.2h-1.142v-3.94H152.988z
			 M154.549,14.109c0.4,0,0.602-0.26,0.602-0.561c0-0.279-0.2-0.52-0.602-0.52h-0.42v1.08L154.549,14.109L154.549,14.109z"/>
	</g>
	<g>
		<g>
			<g>
				<path id="SVGID_1_" fill="#3E3B30" d="M27.586,5.696l-15.84,15.81L28.538,28.5V5.899L27.586,5.696z M27.553,27.025L13.48,21.164
					l7.587-7.573l6.485,2.696v10.738H27.553z"/>
			</g>
		</g>
		<polygon fill="#3E3B30" points="38.586,5.695 29.934,14.329 29.934,15.719 32.068,13.59 38.553,16.286 38.553,27.023 
			29.934,23.408 29.934,24.473 39.537,28.5 39.537,5.899 		"/>
	</g>
</g>
</svg>
