<?xml version="1.0" encoding="utf-8"?>
<!-- Generator: Adobe Illustrator 16.0.0, SVG Export Plug-In . SVG Version: 6.00 Build 0)  -->
<!DOCTYPE svg PUBLIC "-//W3C//DTD SVG 1.1//EN" "http://www.w3.org/Graphics/SVG/1.1/DTD/svg11.dtd">
<svg version="1.1" id="Layer_1" xmlns="http://www.w3.org/2000/svg" xmlns:xlink="http://www.w3.org/1999/xlink" x="0px" y="0px"
	 width="22px" height="22px" viewBox="0 0 22 22" enable-background="new 0 0 22 22" xml:space="preserve">
<path fill="#FFFFFF" d="M8.399,19.055c0,0,0.048-9.85,0-10.869h3.613v1.575h-0.023C12.463,9.02,13.32,7.93,15.268,7.93
	c2.377,0,4.158,1.554,4.158,4.89v6.234h-3.613v-5.815c0-1.46-0.521-2.458-1.828-2.458c-0.998,0-1.592,0.673-1.854,1.32
	c-0.095,0.23-0.117,0.559-0.117,0.883v6.07H8.399z M2.789,19.055V8.186h3.612v10.869H2.789z M4.596,6.703
	c1.259,0,2.045-0.835,2.045-1.879C6.614,3.758,5.854,2.946,4.619,2.946c-1.236,0-2.045,0.812-2.045,1.876
	c0,1.044,0.783,1.879,1.996,1.879h0.025L4.596,6.703L4.596,6.703z"/>
</svg>
