<?xml version="1.0" encoding="utf-8"?>
<!-- Generator: Adobe Illustrator 16.0.0, SVG Export Plug-In . SVG Version: 6.00 Build 0)  -->
<!DOCTYPE svg PUBLIC "-//W3C//DTD SVG 1.1//EN" "http://www.w3.org/Graphics/SVG/1.1/DTD/svg11.dtd">
<svg version="1.1" id="Layer_1" xmlns="http://www.w3.org/2000/svg" xmlns:xlink="http://www.w3.org/1999/xlink" x="0px" y="0px"
	 width="22px" height="22px" viewBox="0 0 22 22" enable-background="new 0 0 22 22" xml:space="preserve">
<g>
	<defs>
		<path id="SVGID_1_" d="M18.643,5.38c0.848-0.51,1.498-1.326,1.802-2.295c-0.79,0.475-1.669,0.819-2.604,1.007
			c-0.749-0.808-1.814-1.311-2.995-1.311c-2.266,0-4.104,1.858-4.104,4.147c0,0.326,0.036,0.643,0.106,0.947
			C7.439,7.706,4.415,6.051,2.391,3.541C2.037,4.155,1.836,4.867,1.836,5.626c0,1.441,0.725,2.711,1.823,3.456
			C2.989,9.06,2.357,8.875,1.803,8.562v0.053c0,2.011,1.415,3.69,3.292,4.069c-0.345,0.098-0.709,0.148-1.082,0.148
			c-0.266,0-0.521-0.029-0.772-0.076c0.521,1.646,2.039,2.848,3.832,2.881c-1.403,1.113-3.174,1.775-5.094,1.775
			c-0.334,0-0.66-0.018-0.979-0.057c1.814,1.178,3.97,1.863,6.288,1.863c7.548,0,11.675-6.324,11.675-11.808
			c0-0.18-0.004-0.358-0.012-0.533C19.754,6.292,20.448,5.56,21,4.729C20.263,5.061,19.473,5.28,18.643,5.38z"/>
	</defs>
	<use xlink:href="#SVGID_1_"  overflow="visible" fill-rule="evenodd" clip-rule="evenodd" fill="#FFFFFF"/>
	<clipPath id="SVGID_2_">
		<use xlink:href="#SVGID_1_"  overflow="visible"/>
	</clipPath>
	<g clip-path="url(#SVGID_2_)">
		<defs>
			<rect id="SVGID_3_" x="-382" y="-323.218" width="1200" height="800"/>
		</defs>
		<use xlink:href="#SVGID_3_"  overflow="visible" fill="#FFFFFF"/>
		<clipPath id="SVGID_4_">
			<use xlink:href="#SVGID_3_"  overflow="visible"/>
		</clipPath>
		<rect x="-4" y="-2.218" clip-path="url(#SVGID_4_)" fill="#FFFFFF" width="30" height="26.437"/>
	</g>
</g>
</svg>
